<?xml version="1.0" encoding="UTF-8"?>
<!-- Uploaded to: SVG Find, www.svgrepo.com, Generator: SVG Find Mixer Tools -->
<svg fill="#000000" width="800px" height="800px" version="1.1" viewBox="144 144 512 512" xmlns="http://www.w3.org/2000/svg">
 <path d="m400 190.08c-115.86 0-209.92 94.066-209.92 209.92s94.066 209.92 209.92 209.92 209.92-94.062 209.92-209.92-94.062-209.92-209.92-209.92zm0 41.984c92.68 0 167.93 75.258 167.93 167.94s-75.254 167.93-167.93 167.93-167.94-75.254-167.94-167.93 75.258-167.94 167.94-167.94zm-20.992 146.95h-62.977c-11.59 0-20.992 9.4023-20.992 20.992 0 11.586 9.4023 20.992 20.992 20.992h62.977v62.973c0 11.59 9.4023 20.992 20.992 20.992 11.586 0 20.992-9.4023 20.992-20.992v-62.973h62.973c11.59 0 20.992-9.4062 20.992-20.992 0-11.59-9.4023-20.992-20.992-20.992h-62.973v-62.977c0-11.59-9.4062-20.992-20.992-20.992-11.59 0-20.992 9.4023-20.992 20.992z" fill-rule="evenodd"/>
</svg>