<?xml version="1.0" encoding="UTF-8"?>
<!-- Uploaded to: SVG Find, www.svgrepo.com, Generator: SVG Find Mixer Tools -->
<svg width="800px" height="800px" version="1.1" viewBox="144 144 512 512" xmlns="http://www.w3.org/2000/svg">
 <defs>
  <clipPath id="a">
   <path d="m211 148.09h378v503.81h-378z"/>
  </clipPath>
 </defs>
 <g clip-path="url(#a)">
  <path d="m211.07 163.84c0-15.742 15.641-15.742 15.641-15.742h252.01l110.21 110.21v377.85c0 15.754-15.793 15.754-15.793 15.754h-346.27c-15.797 0-15.797-15.742-15.797-15.742zm31.488 456.58 314.88-0.011718v-346.36h-78.719c-15.742 0-15.742-15.746-15.742-15.746v-78.719h-220.42zm78.719-181.13c0-4.3047 3.3711-7.7969 7.9453-7.7969h23.543l47.234-31.488v110.21l-47.234-31.488h-23.543c-4.3867 0-7.9453-3.3984-7.9453-7.8008zm133.82 15.816c0-17.977-12.148-33.535-29.293-38.059-4.2031-1.1094-8.5117 1.3984-9.6211 5.6016-1.1094 4.207 1.3984 8.5117 5.6055 9.6211 10.27 2.7109 17.566 12.051 17.566 22.836 0 10.785-7.293 20.121-17.562 22.836-4.2031 1.1094-6.7109 5.418-5.5977 9.6211 1.1094 4.2031 5.418 6.7109 9.6211 5.6016 17.137-4.5312 29.281-20.086 29.281-38.059zm-12.469 65.566c26.375-10.828 43.957-36.566 43.957-65.566 0-29.012-17.605-54.766-44-65.582-4.0195-1.6484-8.6172 0.27734-10.266 4.3008-1.6484 4.0234 0.27344 8.6211 4.2969 10.27 20.531 8.4141 34.227 28.441 34.227 51.012 0 22.559-13.68 42.578-34.191 51-4.0234 1.6523-5.9453 6.25-4.293 10.273 1.6484 4.0195 6.25 5.9414 10.27 4.293z" fill-rule="evenodd"/>
 </g>
</svg>