<?xml version="1.0" encoding="UTF-8"?>
<!-- Uploaded to: SVG Find, www.svgrepo.com, Generator: SVG Find Mixer Tools -->
<svg width="800px" height="800px" version="1.1" viewBox="144 144 512 512" xmlns="http://www.w3.org/2000/svg">
 <defs>
  <clipPath id="a">
   <path d="m211 148.09h378v503.81h-378z"/>
  </clipPath>
 </defs>
 <g clip-path="url(#a)">
  <path d="m211.07 163.84c0-15.742 15.641-15.742 15.641-15.742h252.01l110.21 110.21v377.85c0 15.754-15.793 15.754-15.793 15.754h-346.27c-15.797 0-15.797-15.742-15.797-15.742zm31.488 456.58 314.88-0.011718v-346.36h-78.719c-15.742 0-15.742-15.746-15.742-15.746v-78.719h-220.42zm94.465-239.98 22.266 22.266-44.531 44.531 44.531 44.531-22.266 22.266-66.797-66.797zm125.95 0-22.266 22.266 44.527 44.531-44.527 44.531 22.266 22.266 66.793-66.797zm-64.812-13.461 31.008 5.4688-27.34 155.05-31.008-5.4688z" fill-rule="evenodd"/>
 </g>
</svg>