<?xml version="1.0" encoding="UTF-8"?>
<!-- Uploaded to: SVG Find, www.svgrepo.com, Generator: SVG Find Mixer Tools -->
<svg fill="#000000" width="800px" height="800px" version="1.1" viewBox="144 144 512 512" xmlns="http://www.w3.org/2000/svg">
 <g>
  <path d="m573.18 258.3h-78.723v-31.488c0-12.523-4.9727-24.539-13.832-33.398-8.8594-8.8555-20.871-13.832-33.398-13.832h-94.465c-12.527 0-24.539 4.9766-33.398 13.832-8.8555 8.8594-13.832 20.875-13.832 33.398v31.488h-78.723c-5.625 0-10.82 3.0039-13.633 7.875-2.8125 4.8711-2.8125 10.871 0 15.742 2.8125 4.8711 8.0078 7.8711 13.633 7.8711h15.746v283.39c0 12.527 4.9766 24.539 13.832 33.398 8.8594 8.8555 20.871 13.832 33.398 13.832h220.42c12.527 0 24.539-4.9766 33.398-13.832 8.8555-8.8594 13.832-20.871 13.832-33.398v-283.39h15.746c5.625 0 10.82-3 13.633-7.8711 2.8125-4.8711 2.8125-10.871 0-15.742-2.8125-4.8711-8.0078-7.875-13.633-7.875zm-236.16-31.488c0-4.1758 1.6562-8.1797 4.6094-11.133 2.9531-2.9492 6.957-4.6094 11.133-4.6094h94.465c4.1758 0 8.1797 1.6602 11.133 4.6094 2.9531 2.9531 4.6133 6.957 4.6133 11.133v31.488h-125.95zm188.93 346.37c0 4.1758-1.6562 8.1797-4.6094 11.133s-6.957 4.6094-11.133 4.6094h-220.42c-4.1758 0-8.1797-1.6562-11.133-4.6094s-4.6094-6.957-4.6094-11.133v-283.39h251.9z"/>
  <path d="m447.23 352.77c-4.1758 0-8.1797 1.6602-11.133 4.6133s-4.6094 6.957-4.6094 11.133v141.7c0 5.625 3 10.82 7.8711 13.633s10.871 2.8125 15.742 0c4.8711-2.8125 7.875-8.0078 7.875-13.633v-141.7c0-4.1758-1.6602-8.1797-4.6133-11.133s-6.957-4.6133-11.133-4.6133z"/>
  <path d="m352.77 352.77c-4.1758 0-8.1797 1.6602-11.133 4.6133-2.9531 2.9531-4.6094 6.957-4.6094 11.133v141.7c0 5.625 3 10.82 7.8711 13.633 4.8711 2.8125 10.871 2.8125 15.742 0 4.8711-2.8125 7.875-8.0078 7.875-13.633v-141.7c0-4.1758-1.6602-8.1797-4.6133-11.133-2.9531-2.9531-6.957-4.6133-11.133-4.6133z"/>
 </g>
</svg>