<?xml version="1.0" encoding="UTF-8"?>
<!-- Uploaded to: SVG Find, www.svgrepo.com, Generator: SVG Find Mixer Tools -->
<svg fill="#000000" width="800px" height="800px" version="1.1" viewBox="144 144 512 512" xmlns="http://www.w3.org/2000/svg">
 <g>
  <path d="m541.7 604.67h-283.39c-20.875 0-40.898-8.293-55.66-23.059-14.766-14.762-23.059-34.785-23.059-55.664v-15.742c0-20.879 8.293-40.902 23.059-55.664 14.762-14.762 34.785-23.055 55.66-23.055 4.1758 0 8.1836 1.6562 11.133 4.6094 2.9531 2.9531 4.6133 6.957 4.6133 11.133s-1.6602 8.1797-4.6133 11.133c-2.9492 2.9531-6.957 4.6133-11.133 4.6133-12.527 0-24.539 4.9727-33.398 13.832-8.8555 8.8594-13.832 20.871-13.832 33.398v15.742c0 12.527 4.9766 24.543 13.832 33.398 8.8594 8.8594 20.871 13.836 33.398 13.836h283.39c12.527 0 24.539-4.9766 33.398-13.836 8.8555-8.8555 13.832-20.871 13.832-33.398v-15.742c0-12.527-4.9766-24.539-13.832-33.398-8.8594-8.8594-20.871-13.832-33.398-13.832-4.1758 0-8.1797-1.6602-11.133-4.6133s-4.6133-6.957-4.6133-11.133 1.6602-8.1797 4.6133-11.133 6.957-4.6094 11.133-4.6094c20.879 0 40.902 8.293 55.664 23.055s23.055 34.785 23.055 55.664v15.742c0 20.879-8.293 40.902-23.055 55.664-14.762 14.766-34.785 23.059-55.664 23.059z"/>
  <path d="m400 541.7c-2.0742 0.011719-4.1289-0.38672-6.0469-1.168-1.918-0.78516-3.6602-1.9375-5.1328-3.3984l-47.234-47.23c-2.9609-2.9648-4.6289-6.9883-4.6289-11.18s1.668-8.2148 4.6289-11.18c2.9688-2.9648 6.9883-4.6289 11.18-4.6289 4.1953 0 8.2148 1.6641 11.18 4.6289l36.055 36.211 36.051-36.211c2.9648-2.9648 6.9883-4.6289 11.18-4.6289 4.1914 0 8.2148 1.6641 11.18 4.6289 2.9648 2.9648 4.6289 6.9883 4.6289 11.18s-1.6641 8.2148-4.6289 11.18l-47.234 47.23c-1.4688 1.4609-3.2148 2.6133-5.1328 3.3984-1.918 0.78125-3.9727 1.1797-6.043 1.168z"/>
  <path d="m400 525.95c-4.1758 0-8.1836-1.6562-11.133-4.6094-2.9531-2.9531-4.6133-6.957-4.6133-11.133v-299.14c0-4.1758 1.6602-8.1797 4.6133-11.133 2.9492-2.9531 6.957-4.6133 11.133-4.6133s8.1797 1.6602 11.133 4.6133c2.9531 2.9531 4.6094 6.957 4.6094 11.133v299.14c0 4.1758-1.6562 8.1797-4.6094 11.133-2.9531 2.9531-6.957 4.6094-11.133 4.6094z"/>
 </g>
</svg>