<?xml version="1.0" encoding="UTF-8"?>
<!-- Uploaded to: SVG Find, www.svgrepo.com, Generator: SVG Find Mixer Tools -->
<svg width="800px" height="800px" version="1.1" viewBox="144 144 512 512" xmlns="http://www.w3.org/2000/svg">
 <defs>
  <clipPath id="a">
   <path d="m211 148.09h378v503.81h-378z"/>
  </clipPath>
 </defs>
 <g clip-path="url(#a)">
  <path d="m211.07 163.84c0-15.742 15.641-15.742 15.641-15.742h252.01l110.21 110.21v377.85c0 15.754-15.793 15.754-15.793 15.754h-346.27c-15.797 0-15.797-15.742-15.797-15.742zm31.488 456.58 314.88-0.011718v-346.36h-78.719c-15.742 0-15.742-15.746-15.742-15.746v-78.719h-220.42zm158.12-155.55s-19.391 43.355-37.016 30.551c-17.625-12.809 17.617-44.648 17.617-44.648s-47.203-5.1172-40.496-25.762c6.7109-20.645 47.906 2.957 47.906 2.957s-9.75-46.473 11.988-46.473c21.738 0 11.988 46.473 11.988 46.473s41.176-23.676 47.906-2.957c6.7305 20.715-40.496 25.762-40.496 25.762s35.145 31.914 17.617 44.648c-17.523 12.73-37.016-30.551-37.016-30.551zm-110.89-64.867h31.488v31.488h-31.488zm188.93 0h31.488v31.488h-31.488zm-188.93-62.977h31.488v31.488h-31.488zm62.977 0h31.488v31.488h-31.488zm62.977 0h31.488v31.488h-31.488zm62.977 0h31.488v31.488h-31.488zm-157.44 31.488h31.488v31.488h-31.488zm125.95 0h31.488v31.488h-31.488zm-157.44 94.465h31.488v31.484h-31.488zm188.93 0h31.488v31.484h-31.488zm-31.488 31.484h31.488v31.488h-31.488zm-125.95 0h31.488v31.488h-31.488zm-31.488 31.488h31.488v31.488h-31.488zm62.977 0h31.488v31.488h-31.488zm62.977 0h31.488v31.488h-31.488zm62.977 0h31.488v31.488h-31.488z" fill-rule="evenodd"/>
 </g>
</svg>