<?xml version="1.0" encoding="UTF-8"?>
<!-- Uploaded to: SVG Find, www.svgrepo.com, Generator: SVG Find Mixer Tools -->
<svg width="800px" height="800px" version="1.1" viewBox="144 144 512 512" xmlns="http://www.w3.org/2000/svg">
 <defs>
  <clipPath id="a">
   <path d="m211 148.09h378v503.81h-378z"/>
  </clipPath>
 </defs>
 <g clip-path="url(#a)">
  <path d="m375.8 482.56-30.91-35.328-55.105 62.977h220.42l-78.719-94.465zm-164.73-318.72c0-15.742 15.641-15.742 15.641-15.742h252.01l110.21 110.21v377.85c0 15.754-15.793 15.754-15.793 15.754h-346.27c-15.797 0-15.797-15.742-15.797-15.742zm31.488 456.58 314.88-0.011718v-346.36h-78.719c-15.742 0-15.742-15.746-15.742-15.746v-78.719h-220.42zm78.719-204.67c8.6953 0 15.746-7.0469 15.746-15.742s-7.0508-15.746-15.746-15.746c-8.6953 0-15.742 7.0508-15.742 15.746s7.0469 15.742 15.742 15.742z" fill-rule="evenodd"/>
 </g>
</svg>