<?xml version="1.0" encoding="UTF-8"?>
<!-- Uploaded to: SVG Find, www.svgrepo.com, Generator: SVG Find Mixer Tools -->
<svg width="800px" height="800px" version="1.1" viewBox="144 144 512 512" xmlns="http://www.w3.org/2000/svg">
 <defs>
  <clipPath id="a">
   <path d="m211 148.09h378v503.81h-378z"/>
  </clipPath>
 </defs>
 <g clip-path="url(#a)">
  <path d="m211.07 163.84c0-15.742 15.641-15.742 15.641-15.742h252.01l110.21 110.21v377.85c0 15.754-15.793 15.754-15.793 15.754h-346.27c-15.797 0-15.797-15.742-15.797-15.742zm31.488 456.58 314.88-0.011718v-346.36h-78.719c-15.742 0-15.742-15.746-15.742-15.746v-78.719h-220.42zm43.297-222.94c0 4.4336-0.011719 6.4258-0.054688 8.875-0.25 13.785-1.8516 21.895-4.7266 25.039l-7.5547 8.2656 7.8516 7.9805c2.6719 2.7188 4.2422 10.883 4.4453 25.145 0.03125 2.2109 0.039063 4.0039 0.039063 8.0039 0 32.805 1.5352 41.23 19.68 41.23 6.5195 0 11.809-5.2891 11.809-11.809 0-7.5273-6.8516-9.6875-7.082-10.938-0.64062-3.5195-0.79297-7.7812-0.79297-18.484 0-4.1133-0.003906-5.9844-0.039062-8.3398-0.29297-20.465-1.6406-24.809-5.5781-32.98 3.9375-8.0234 5.3047-18.383 5.5625-32.688 0.046876-2.6367 0.054688-4.7266 0.054688-9.3008 0-10.551 0.15234-14.738 0.78516-18.16 0.21875-1.1797 7.0898-2.832 7.0898-10.805 0-6.5234-5.2891-11.809-11.809-11.809-18.113 0-19.68 8.4336-19.68 40.773zm227.5 0c0 4.4336 0.007812 6.4258 0.054687 8.875 0.24609 13.785 1.8516 21.895 4.7266 25.039l7.5508 8.2656-7.8477 7.9805c-2.6719 2.7188-4.2422 10.883-4.4453 25.145-0.03125 2.2109-0.039062 4.0039-0.039062 8.0039 0 32.805-1.5352 41.23-19.68 41.23-6.5195 0-11.809-5.2891-11.809-11.809 0-7.5273 6.8516-9.6875 7.082-10.938 0.64062-3.5195 0.78906-7.7812 0.78906-18.484 0-4.1133 0.007813-5.9844 0.042969-8.3398 0.29297-20.465 1.6406-24.809 5.5781-32.98-3.9375-8.0234-5.3047-18.383-5.5625-32.688-0.046875-2.6367-0.058594-4.7266-0.058594-9.3008 0-10.551-0.14844-14.738-0.78516-18.16-0.21875-1.1797-7.0859-2.832-7.0859-10.805 0-6.5234 5.2891-11.809 11.809-11.809 18.113 0 19.68 8.4336 19.68 40.773zm-113.36 112.73c8.6953 0 15.742-7.0508 15.742-15.746 0-8.6914-7.0469-15.742-15.742-15.742s-15.746 7.0508-15.746 15.742c0 8.6953 7.0508 15.746 15.746 15.746zm-47.234 0c8.6953 0 15.746-7.0508 15.746-15.746 0-8.6914-7.0508-15.742-15.746-15.742s-15.742 7.0508-15.742 15.742c0 8.6953 7.0469 15.746 15.742 15.746zm94.465 0c8.6953 0 15.746-7.0508 15.746-15.746 0-8.6914-7.0508-15.742-15.746-15.742-8.6953 0-15.742 7.0508-15.742 15.742 0 8.6953 7.0469 15.746 15.742 15.746z" fill-rule="evenodd"/>
 </g>
</svg>