<?xml version="1.0" encoding="UTF-8"?>
<!-- Uploaded to: SVG Find, www.svgrepo.com, Generator: SVG Find Mixer Tools -->
<svg fill="#000000" width="800px" height="800px" version="1.1" viewBox="144 144 512 512" xmlns="http://www.w3.org/2000/svg">
 <g>
  <path d="m438.1 473.52c-13.531 0.046874-26.941-2.5859-39.453-7.7461s-23.879-12.75-33.441-22.324l-8.6562-8.6602c-9.5859-9.5508-17.188-20.898-22.375-33.395-5.1875-12.496-7.8594-25.891-7.8594-39.422s2.6719-26.926 7.8594-39.422c5.1875-12.496 12.789-23.844 22.375-33.395l78.719-78.719c9.5625-9.5664 20.914-17.152 33.406-22.328 12.496-5.1758 25.887-7.8398 39.41-7.8398 13.523 0 26.914 2.6641 39.41 7.8398 12.492 5.1758 23.844 12.762 33.406 22.328l8.6602 8.6562c19.273 19.332 30.098 45.52 30.098 72.816 0 27.301-10.824 53.488-30.098 72.816l-78.723 78.723c-9.5352 9.5703-20.871 17.156-33.355 22.32-12.484 5.1602-25.871 7.793-39.383 7.75zm19.996-241.52-78.719 78.723c-13.402 13.402-20.934 31.582-20.934 50.539 0 18.953 7.5312 37.133 20.934 50.535l8.8164 8.8164c13.402 13.402 31.582 20.934 50.539 20.934 18.953 0 37.133-7.5312 50.535-20.934l78.723-78.719c13.371-13.449 20.879-31.648 20.879-50.617s-7.5078-37.164-20.879-50.617l-8.6602-8.6602c-13.453-13.371-31.648-20.879-50.617-20.879s-37.164 7.5078-50.617 20.879z"/>
  <path d="m291.21 620.41c-13.52 0.015626-26.91-2.6445-39.395-7.8359-12.484-5.1875-23.816-12.797-33.344-22.391l-8.6602-8.6602c-19.273-19.332-30.098-45.516-30.098-72.816 0-27.301 10.824-53.484 30.098-72.816l78.723-78.719c9.5508-9.582 20.898-17.188 33.395-22.375 12.496-5.1875 25.891-7.8594 39.422-7.8594 13.527 0 26.926 2.6719 39.422 7.8594 12.492 5.1875 23.844 12.793 33.395 22.375l8.6602 8.6602c9.582 9.5508 17.184 20.898 22.371 33.395 5.1875 12.492 7.8594 25.891 7.8594 39.418 0 13.531-2.6719 26.93-7.8594 39.422-5.1875 12.496-12.789 23.844-22.371 33.395l-78.723 78.723c-9.5547 9.5977-20.914 17.211-33.426 22.398s-25.926 7.8477-39.469 7.8281zm70.691-262.61c-18.953 0.019531-37.125 7.5508-50.539 20.941l-78.719 78.719c-13.375 13.449-20.883 31.648-20.883 50.617s7.5078 37.164 20.883 50.617l8.6562 8.6602c13.453 13.371 31.652 20.879 50.617 20.879 18.969 0 37.168-7.5078 50.617-20.879l78.723-78.723c13.402-13.402 20.93-31.582 20.93-50.539 0-18.953-7.5273-37.133-20.93-50.535l-8.8164-8.8164c-6.6328-6.6484-14.512-11.918-23.184-15.512-8.6719-3.5898-17.969-5.4375-27.355-5.4297z"/>
 </g>
</svg>