<?xml version="1.0" encoding="UTF-8"?>
<!-- Uploaded to: SVG Find, www.svgrepo.com, Generator: SVG Find Mixer Tools -->
<svg width="800px" height="800px" version="1.1" viewBox="144 144 512 512" xmlns="http://www.w3.org/2000/svg">
 <defs>
  <clipPath id="a">
   <path d="m211 148.09h378v503.81h-378z"/>
  </clipPath>
 </defs>
 <g clip-path="url(#a)">
  <path d="m352.74 478.72h0.023437l0.046875-106.84 94.418 33.992v86.5c-4.6328-1.6719-10.008-2.6328-15.742-2.6328-17.391 0-31.488 8.8125-31.488 19.68 0 10.871 14.098 19.684 31.488 19.684 16.969 0 30.801-8.3906 31.461-18.895h0.027343v-125.4c0-3.3125-2.0781-6.2734-5.1914-7.3984l-110.21-39.918c-5.1328-1.8594-10.551 1.9453-10.551 7.4023v115.99c-4.6328-1.6719-10.012-2.6328-15.746-2.6328-17.391 0-31.488 8.8125-31.488 19.684 0 10.867 14.098 19.68 31.488 19.68 16.969 0 30.805-8.3906 31.465-18.895zm-141.67-314.88c0-15.742 15.641-15.742 15.641-15.742h252.01l110.21 110.21v377.85c0 15.754-15.793 15.754-15.793 15.754h-346.27c-15.797 0-15.797-15.742-15.797-15.742zm31.488 456.58 314.88-0.011718v-346.36h-78.719c-15.742 0-15.742-15.746-15.742-15.746v-78.719h-220.42z" fill-rule="evenodd"/>
 </g>
</svg>