<?xml version="1.0" encoding="UTF-8"?>
<!-- Uploaded to: SVG Find, www.svgrepo.com, Generator: SVG Find Mixer Tools -->
<svg width="800px" height="800px" version="1.1" viewBox="144 144 512 512" xmlns="http://www.w3.org/2000/svg">
 <defs>
  <clipPath id="a">
   <path d="m211 148.09h378v503.81h-378z"/>
  </clipPath>
 </defs>
 <g clip-path="url(#a)">
  <path d="m211.07 163.84c0-15.742 15.641-15.742 15.641-15.742h252.01l110.21 110.21v377.85c0 15.754-15.793 15.754-15.793 15.754h-346.27c-15.797 0-15.797-15.742-15.797-15.742zm31.488 456.58 314.88-0.011718v-346.36h-78.719c-15.742 0-15.742-15.746-15.742-15.746v-78.719h-220.42zm135.49-227.13c-6.1328-18.77-3.6133-43.191 9.0352-47.398 10.504-3.4961 18.398 2.1914 21.762 12.555 2.1445 6.6016 2.707 15.398 2.043 24.852-0.46875 6.6914-3.1484 17.355-7.25 30.164 12.844 24.793 31.289 47.242 48.75 62.883 21.445-3.9766 39.27-5.7578 47.375-3.5312 10.09 2.7734 16.086 9.5703 16.312 18.16 0.18359 7.0664-3.7969 14.098-9.6836 17.531-10.344 6.0312-30.746 3.9375-44.988-5.3008-4.3867-2.8398-8.9648-6.2188-13.629-10.066-28.098 5.832-62.188 15.113-86.836 23.379-2.8281 5.5977-5.5664 10.766-8.1445 15.336-17.824 31.598-39.988 42.117-51.949 25.418-9.4453-13.195 2.0703-30.594 23.348-42.812 5.3398-3.0625 14.324-6.793 25.523-10.754 13.152-26.875 27.922-62.285 36.977-88.949-3.3477-7.0195-6.2695-14.199-8.6445-21.465zm-7.7773 103.63c19.445-6.0195 41.934-12.023 62.875-16.652l-0.015626-0.48828c-12.98-12.977-25.824-28.941-36.426-46.496l0.09375 0.003906c-7.4961 20.496-17.086 43.52-26.504 63.848zm23.488-106.43c-0.24219-0.70703-0.48047-1.4141-0.71094-2.125-3.7461-11.449-2.1211-27.184-0.96484-27.566 0.99609-0.33203 0.87891-0.41797 1.8203 2.4766 1.3984 4.3164 1.8438 11.273 1.3125 18.891-0.15625 2.2266-0.625 5.0312-1.3555 8.3164zm75.359 98.707c12.32-1.8828 21.879-2.5039 26.504-1.2344 3.7305 1.0273 4.7109 2.1367 4.7461 3.3906 0.03125 1.2773-0.91797 2.9609-1.875 3.5195-4.75 2.7656-18.891 1.3164-28.492-4.9102-0.32031-0.20703-0.64453-0.41797-0.96875-0.63281zm-130.32 35.582c-2.7031 1.1836-4.9727 2.293-6.7344 3.3008-7.7148 4.4336-13.547 9.4922-16.594 14.098-2.1523 3.25-2.3711 5.0859-1.793 5.8945 0.80078 1.1172 2.0391 1.3828 4.9727-0.007813 5.668-2.6914 12.703-10.363 20.125-23.379z" fill-rule="evenodd"/>
 </g>
</svg>