<?xml version="1.0" encoding="UTF-8"?>
<!-- Uploaded to: SVG Find, www.svgrepo.com, Generator: SVG Find Mixer Tools -->
<svg fill="#000000" width="800px" height="800px" version="1.1" viewBox="144 144 512 512" xmlns="http://www.w3.org/2000/svg">
 <path d="m594.12 412.8c-0.30859 0.56641-0.56641 1.1836-0.92578 1.7461-0.97656 1.4414-2.0547 2.8281-3.3398 4.0625l-92.746 92.742c-5.0898 5.1406-11.824 7.6602-18.559 7.6602s-13.418-2.5703-18.559-7.6602c-10.23-10.23-10.23-26.836 0-37.066l48.016-48.016h-279.36c-14.496 0-26.219-11.723-26.219-26.219 0-14.496 11.723-26.219 26.219-26.219h279.41l-48.016-48.016c-10.23-10.23-10.23-26.836 0-37.066s26.836-10.23 37.066 0l92.742 92.742c1.2344 1.2344 2.3633 2.5703 3.2891 4.0625 0.41016 0.61719 0.71875 1.2852 1.0781 1.9531 0.46094 0.82422 0.97656 1.6445 1.3359 2.5703 0.35938 0.875 0.56641 1.8008 0.82422 2.6719 0.20703 0.71875 0.51563 1.4414 0.66797 2.2109 0.35938 1.6953 0.51562 3.3945 0.51562 5.1406v0.10156c0 1.6953-0.15234 3.3398-0.51562 5.0391-0.15234 0.82422-0.46094 1.5938-0.71875 2.418-0.25781 0.82422-0.46094 1.6953-0.76953 2.4688-0.36328 0.87109-0.92969 1.7461-1.4414 2.6719z"/>
</svg>