<?xml version="1.0" encoding="UTF-8"?>
<!-- Uploaded to: SVG Find, www.svgrepo.com, Generator: SVG Find Mixer Tools -->
<svg fill="#000000" width="800px" height="800px" version="1.1" viewBox="144 144 512 512" xmlns="http://www.w3.org/2000/svg">
 <g>
  <path d="m431.49 557.44c-37.367 0-73.895-11.078-104.96-31.84-31.07-20.758-55.285-50.266-69.586-84.789-14.297-34.52-18.039-72.508-10.75-109.16 7.2891-36.648 25.285-70.312 51.707-96.734s60.086-44.418 96.734-51.707c36.648-7.2891 74.637-3.5469 109.16 10.754 34.523 14.297 64.031 38.512 84.789 69.582 20.762 31.07 31.84 67.598 31.84 104.96 0 50.105-19.902 98.16-55.336 133.59-35.43 35.434-83.484 55.336-133.59 55.336zm0-346.37c-31.141 0-61.578 9.2344-87.473 26.535-25.891 17.297-46.07 41.887-57.984 70.656-11.918 28.766-15.035 60.422-8.9609 90.965 6.0742 30.539 21.07 58.594 43.09 80.609 22.02 22.02 50.07 37.016 80.609 43.09 30.543 6.0742 62.199 2.957 90.965-8.9609 28.77-11.914 53.359-32.094 70.66-57.984 17.297-25.891 26.531-56.332 26.531-87.469 0-20.676-4.0703-41.148-11.984-60.25-7.9102-19.102-19.508-36.461-34.129-51.078-14.617-14.621-31.973-26.219-51.078-34.129-19.102-7.9141-39.574-11.984-60.246-11.984z"/>
  <path d="m541.7 384.25c-4.1758 0-8.1797-1.6562-11.133-4.6094s-4.6133-6.957-4.6133-11.133c0-25.055-9.9492-49.082-27.668-66.797-17.715-17.715-41.742-27.668-66.793-27.668-4.1758 0-8.1836-1.6602-11.133-4.6133-2.9531-2.9492-4.6133-6.957-4.6133-11.133s1.6602-8.1797 4.6133-11.133c2.9492-2.9531 6.957-4.6094 11.133-4.6094 33.402 0 65.441 13.27 89.059 36.891 23.621 23.621 36.891 55.656 36.891 89.062 0 4.1758-1.6562 8.1797-4.6094 11.133s-6.957 4.6094-11.133 4.6094z"/>
  <path d="m195.32 620.41c-2.0703 0.011719-4.125-0.38281-6.043-1.168-1.918-0.78125-3.6641-1.9375-5.1328-3.3984-1.4766-1.4609-2.6484-3.2031-3.4453-5.1211-0.80078-1.918-1.2109-3.9766-1.2109-6.0547s0.41016-4.1367 1.2109-6.0547c0.79688-1.918 1.9688-3.6602 3.4453-5.125l110.21-110.21c1.4688-1.4688 3.2109-2.6328 5.1289-3.4258 1.918-0.79688 3.9727-1.207 6.0508-1.207 2.0742 0 4.1289 0.41016 6.0469 1.207 1.9219 0.79297 3.6641 1.957 5.1289 3.4258 1.4688 1.4688 2.6328 3.2109 3.4297 5.1289 0.79297 1.918 1.2031 3.9727 1.2031 6.0469 0 2.0781-0.41016 4.1328-1.2031 6.0508-0.79688 1.918-1.9609 3.6602-3.4297 5.1289l-110.21 110.21c-1.4727 1.4609-3.2148 2.6172-5.1328 3.3984-1.918 0.78516-3.9727 1.1797-6.0469 1.168z"/>
 </g>
</svg>