<?xml version="1.0" encoding="UTF-8"?>
<!-- Uploaded to: SVG Find, www.svgrepo.com, Generator: SVG Find Mixer Tools -->
<svg width="800px" height="800px" version="1.1" viewBox="144 144 512 512" xmlns="http://www.w3.org/2000/svg">
 <defs>
  <clipPath id="a">
   <path d="m211 148.09h378v503.81h-378z"/>
  </clipPath>
 </defs>
 <g clip-path="url(#a)">
  <path d="m398.78 424.89c9.5312-5.8047 20.727-9.1484 32.707-9.1484 34.777 0 62.973 28.195 62.973 62.977s-28.195 62.977-62.973 62.977c-29.348 0-54.004-20.07-60.992-47.234h74.664l-16.316-24.477zm-187.71-261.05c0-15.742 15.641-15.742 15.641-15.742h252.01l110.21 110.21v377.85c0 15.754-15.793 15.754-15.793 15.754h-346.27c-15.797 0-15.797-15.742-15.797-15.742zm31.488 456.58 314.88-0.011718v-346.36h-78.719c-15.742 0-15.742-15.746-15.742-15.746v-78.719h-220.42zm110.21-236.16-62.977 94.465h125.95z" fill-rule="evenodd"/>
 </g>
</svg>