<?xml version="1.0" encoding="UTF-8"?>
<!-- Uploaded to: SVG Find, www.svgrepo.com, Generator: SVG Find Mixer Tools -->
<svg width="800px" height="800px" version="1.1" viewBox="144 144 512 512" xmlns="http://www.w3.org/2000/svg">
 <defs>
  <clipPath id="a">
   <path d="m211 148.09h378v503.81h-378z"/>
  </clipPath>
 </defs>
 <g clip-path="url(#a)">
  <path d="m455.79 399.19c7.3789 10.816 11.691 23.891 11.691 37.973 0 37.27-30.211 67.484-67.48 67.484s-67.484-30.215-67.484-67.484c0-37.27 30.215-67.48 67.484-67.48 15.062 0 28.977 4.9375 40.207 13.281l-39.34 39.336s-7.1992 7.1992 0.75391 15.152c7.9531 7.9492 15.148 0.75391 15.148 0.75391zm-244.72-235.36c0-15.742 15.641-15.742 15.641-15.742h252.01l110.21 110.21v377.85c0 15.754-15.793 15.754-15.793 15.754h-346.27c-15.797 0-15.797-15.742-15.797-15.742zm31.488 456.58 314.88-0.011718v-346.36h-78.719c-15.742 0-15.742-15.746-15.742-15.746v-78.719h-220.42zm157.44-88.773c12.715 0 28.977-3.6602 40.047-8.2148l26.562 34.012h21.285l2.9297-20.016-24.215-33.262c17.211-17.113 27.863-40.809 27.863-66.996 0-52.176-42.297-94.473-94.473-94.473-52.18 0-94.477 42.297-94.477 94.473 0 52.18 42.297 94.477 94.477 94.477zm55.789-132.45c-4.2539-6.2422-9.5312-11.73-15.582-16.227l10.848-10.852 15.906 15.906z" fill-rule="evenodd"/>
 </g>
</svg>