<?xml version="1.0" encoding="UTF-8"?>
<!-- Uploaded to: SVG Find, www.svgrepo.com, Generator: SVG Find Mixer Tools -->
<svg width="800px" height="800px" version="1.1" viewBox="144 144 512 512" xmlns="http://www.w3.org/2000/svg">
 <defs>
  <clipPath id="a">
   <path d="m211 148.09h378v503.81h-378z"/>
  </clipPath>
 </defs>
 <g clip-path="url(#a)">
  <path d="m211.07 163.84c0-15.742 15.641-15.742 15.641-15.742h252.01l110.21 110.21v377.85c0 15.754-15.793 15.754-15.793 15.754h-346.27c-15.797 0-15.797-15.742-15.797-15.742zm31.488 456.58 314.88-0.011718v-346.36h-78.719c-15.742 0-15.742-15.746-15.742-15.746v-78.719h-220.42zm149.57-204.67h15.746l7.8711 47.234s0 15.742-15.742 15.742c-15.746 0-15.746-15.742-15.746-15.742zm-23.613-47.23h31.488v31.488h-31.488zm31.488-31.488h31.488v31.488h-31.488zm-31.488-31.488h31.488v31.488h-31.488zm31.488-31.488h31.488v31.488h-31.488zm-31.488-31.488h31.488v31.488h-31.488zm31.488-31.488h31.488v31.488h-31.488zm-31.488-31.488h31.488v31.488h-31.488z" fill-rule="evenodd"/>
 </g>
</svg>